<svg width="24" height="18" viewBox="0 0 31 24" fill="none" xmlns="http://www.w3.org/2000/svg">
<path d="M0.514045 10.4249C0.184902 10.7541 0 11.2006 0 11.6661C0 12.1317 0.184902 12.5782 0.514045 12.9074L10.446 22.8394C10.608 23.0071 10.8017 23.1408 11.0159 23.2329C11.2301 23.3249 11.4605 23.3733 11.6936 23.3753C11.9268 23.3774 12.1579 23.3329 12.3737 23.2447C12.5895 23.1564 12.7855 23.026 12.9504 22.8612C13.1152 22.6963 13.2456 22.5003 13.3338 22.2845C13.4221 22.0688 13.4665 21.8376 13.4645 21.6044C13.4625 21.3713 13.4141 21.1409 13.322 20.9267C13.23 20.7125 13.0963 20.5188 12.9286 20.3568L5.99358 13.4218L29.2443 13.4218C29.7099 13.4218 30.1565 13.2369 30.4858 12.9076C30.815 12.5783 31 12.1318 31 11.6661C31 11.2005 30.815 10.7539 30.4858 10.4247C30.1565 10.0954 29.7099 9.91043 29.2443 9.91043L5.99358 9.91043L12.9286 2.97542C13.2484 2.64429 13.4254 2.2008 13.4214 1.74046C13.4174 1.28012 13.2327 0.839768 12.9072 0.514247C12.5817 0.188726 12.1413 0.0040793 11.681 7.90805e-05C11.2207 -0.00392114 10.7772 0.173043 10.446 0.492858L0.514045 10.4249Z" fill="black"/>
</svg>
