<?xml version="1.0" standalone="no"?>
<!DOCTYPE svg PUBLIC "-//W3C//DTD SVG 20010904//EN"
 "http://www.w3.org/TR/2001/REC-SVG-20010904/DTD/svg10.dtd">
<svg version="1.0" xmlns="http://www.w3.org/2000/svg"
 width="24.000000pt" height="24.000000pt" viewBox="0 0 980.000000 980.000000"
 preserveAspectRatio="xMidYMid meet">

<g transform="translate(0.000000,980.000000) scale(0.100000,-0.100000)"
fill="#543CE7" stroke="none">
<path d="M4560 9789 c-1035 -75 -1998 -463 -2800 -1128 -150 -123 -501 -475
-622 -621 -881 -1068 -1270 -2403 -1098 -3765 119 -934 501 -1801 1124 -2545
98 -117 370 -393 496 -504 1328 -1166 3158 -1531 4825 -962 895 305 1700 879
2281 1627 735 946 1100 2126 1024 3314 -70 1095 -490 2107 -1215 2935 -146
166 -427 434 -599 573 -756 605 -1610 958 -2576 1062 -174 19 -664 27 -840 14z
m740 -619 c1015 -102 1920 -529 2630 -1240 1067 -1068 1492 -2595 1130 -4065
-373 -1516 -1566 -2722 -3080 -3114 -891 -231 -1835 -170 -2680 171 -818 331
-1509 899 -1992 1638 -760 1160 -906 2624 -393 3925 109 278 290 612 472 873
445 638 1078 1157 1788 1467 485 213 963 325 1520 359 101 6 494 -3 605 -14z"/>
<path d="M3231 7699 c-125 -24 -234 -131 -275 -268 -15 -50 -16 -290 -16
-2607 0 -2513 0 -2553 20 -2616 34 -112 118 -206 218 -245 45 -17 134 -18
1807 -18 l1760 0 57 27 c121 56 201 177 218 328 6 53 10 828 10 2030 l0 1945
-536 718 -537 717 -1341 -1 c-737 -1 -1361 -5 -1385 -10z m2329 -936 c0 -280
5 -541 10 -581 12 -94 51 -172 113 -228 81 -73 91 -74 564 -74 l413 0 0 -1732
c0 -1597 -1 -1733 -17 -1750 -15 -17 -80 -18 -1659 -18 -1480 0 -1644 2 -1658
16 -14 14 -16 249 -16 2433 0 1866 3 2420 12 2429 9 9 273 12 1125 12 l1113 0
0 -507z m968 -440 l23 -33 -355 0 -356 0 0 477 0 477 333 -445 c183 -244 343
-459 355 -476z"/>
<path d="M4867 5778 c-28 -26 -843 -979 -870 -1018 -22 -32 -22 -55 3 -80 19
-19 33 -20 275 -20 l254 0 3 -667 c3 -634 4 -670 22 -699 38 -63 45 -64 356
-64 311 0 324 2 357 63 17 30 18 83 21 700 l3 667 258 0 c237 0 259 1 274 18
39 43 35 49 -404 564 -231 271 -436 508 -454 526 -41 38 -65 40 -98 10z"/>
</g>
</svg>