<svg width="172" height="27" viewBox="0 0 172 27" fill="none" xmlns="http://www.w3.org/2000/svg">
<path d="M11.1562 1.09375V21H6.35742V1.09375H11.1562ZM17.1445 1.09375V4.79883H0.505859V1.09375H17.1445ZM30.4965 21.2734C29.2934 21.2734 28.2178 21.0866 27.2699 20.7129C26.322 20.3301 25.5199 19.806 24.8637 19.1406C24.2165 18.4753 23.7198 17.7096 23.3734 16.8438C23.0362 15.9779 22.8676 15.0618 22.8676 14.0957V13.5762C22.8676 12.4915 23.018 11.4889 23.3188 10.5684C23.6195 9.63867 24.0661 8.82747 24.6586 8.13477C25.251 7.44206 25.9939 6.9043 26.8871 6.52148C27.7803 6.12956 28.8194 5.93359 30.0043 5.93359C31.0525 5.93359 31.9913 6.10221 32.8207 6.43945C33.6501 6.77669 34.352 7.25977 34.9262 7.88867C35.5095 8.51758 35.9516 9.27865 36.2523 10.1719C36.5622 11.0651 36.7172 12.0677 36.7172 13.1797V15.0527H24.6313V12.168H32.2191V11.8125C32.2283 11.3203 32.1417 10.901 31.9594 10.5547C31.7862 10.2083 31.531 9.94401 31.1938 9.76172C30.8565 9.57943 30.4464 9.48828 29.9633 9.48828C29.462 9.48828 29.0473 9.59766 28.7191 9.81641C28.4001 10.0352 28.1495 10.3359 27.9672 10.7188C27.794 11.0924 27.671 11.5254 27.598 12.0176C27.5251 12.5098 27.4887 13.0293 27.4887 13.5762V14.0957C27.4887 14.6426 27.5616 15.1393 27.7074 15.5859C27.8624 16.0326 28.0811 16.4154 28.3637 16.7344C28.6553 17.0443 29.0017 17.2858 29.4027 17.459C29.8129 17.6322 30.2777 17.7188 30.7973 17.7188C31.4262 17.7188 32.046 17.6003 32.6566 17.3633C33.2673 17.1263 33.7914 16.7344 34.2289 16.1875L36.3207 18.6758C36.0199 19.1042 35.5915 19.5189 35.0355 19.9199C34.4887 20.321 33.8324 20.6491 33.0668 20.9043C32.3012 21.1504 31.4444 21.2734 30.4965 21.2734ZM51.8738 17.2812V11.1836C51.8738 10.7643 51.8146 10.4043 51.6961 10.1035C51.5776 9.80273 51.3908 9.57031 51.1355 9.40625C50.8803 9.23307 50.5385 9.14648 50.1102 9.14648C49.7638 9.14648 49.4676 9.20573 49.2215 9.32422C48.9754 9.44271 48.7885 9.62044 48.6609 9.85742C48.5333 10.0944 48.4695 10.3952 48.4695 10.7598H43.8621C43.8621 10.0762 44.0125 9.44271 44.3133 8.85938C44.6232 8.26693 45.0607 7.75195 45.6258 7.31445C46.2 6.87695 46.8836 6.53971 47.6766 6.30273C48.4786 6.05664 49.3719 5.93359 50.3563 5.93359C51.532 5.93359 52.5802 6.12956 53.5008 6.52148C54.4305 6.91341 55.1642 7.5013 55.702 8.28516C56.2397 9.0599 56.5086 10.0352 56.5086 11.2109V17.2676C56.5086 18.2337 56.5633 18.9674 56.6727 19.4688C56.782 19.9609 56.937 20.3939 57.1375 20.7676V21H52.5164C52.2977 20.5443 52.1336 19.9883 52.0242 19.332C51.924 18.6667 51.8738 17.9831 51.8738 17.2812ZM52.4344 11.9629L52.4617 14.4238H50.4246C49.9962 14.4238 49.6316 14.4831 49.3309 14.6016C49.0392 14.7201 48.8022 14.8841 48.6199 15.0938C48.4467 15.2943 48.3191 15.5221 48.2371 15.7773C48.1642 16.0326 48.1277 16.3014 48.1277 16.584C48.1277 16.8574 48.1915 17.1035 48.3191 17.3223C48.4559 17.5319 48.6382 17.696 48.866 17.8145C49.0939 17.9329 49.3491 17.9922 49.6316 17.9922C50.1421 17.9922 50.575 17.8965 50.9305 17.7051C51.2951 17.5046 51.573 17.263 51.7645 16.9805C51.9559 16.6979 52.0516 16.4336 52.0516 16.1875L53.0633 18.0742C52.881 18.4388 52.6714 18.8079 52.4344 19.1816C52.2065 19.5553 51.9194 19.9017 51.573 20.2207C51.2358 20.5306 50.8211 20.7858 50.3289 20.9863C49.8367 21.1777 49.2397 21.2734 48.5379 21.2734C47.6264 21.2734 46.7879 21.0866 46.0223 20.7129C45.2658 20.3392 44.6596 19.8197 44.2039 19.1543C43.7482 18.4798 43.5203 17.7051 43.5203 16.8301C43.5203 16.0645 43.657 15.3809 43.9305 14.7793C44.213 14.1777 44.6368 13.6673 45.202 13.248C45.7671 12.8288 46.4871 12.5098 47.3621 12.291C48.2371 12.0723 49.2671 11.9629 50.452 11.9629H52.4344ZM69.3137 9.33789V21H64.7062V6.20703H69.0266L69.3137 9.33789ZM68.7531 13.0977L67.7004 13.125C67.7004 12.0859 67.8234 11.1289 68.0695 10.2539C68.3156 9.37891 68.6802 8.61784 69.1633 7.9707C69.6464 7.32357 70.2388 6.82227 70.9406 6.4668C71.6516 6.11133 72.4719 5.93359 73.4016 5.93359C74.0487 5.93359 74.6366 6.03385 75.1652 6.23438C75.6939 6.42578 76.1496 6.73112 76.5324 7.15039C76.9152 7.56055 77.2069 8.09831 77.4074 8.76367C77.6171 9.41992 77.7219 10.2083 77.7219 11.1289V21H73.1145V11.7168C73.1145 11.0879 73.0415 10.6139 72.8957 10.2949C72.759 9.97591 72.5585 9.76172 72.2941 9.65234C72.0298 9.54297 71.7062 9.48828 71.3234 9.48828C70.9224 9.48828 70.5624 9.57943 70.2434 9.76172C69.9243 9.94401 69.6509 10.1992 69.423 10.5273C69.2043 10.8464 69.0357 11.2246 68.9172 11.6621C68.8078 12.0996 68.7531 12.5781 68.7531 13.0977ZM77.2023 13.0977L75.9172 13.125C75.9172 12.0859 76.0311 11.1289 76.259 10.2539C76.496 9.37891 76.8469 8.61784 77.3117 7.9707C77.7857 7.32357 78.3736 6.82227 79.0754 6.4668C79.7772 6.11133 80.593 5.93359 81.5227 5.93359C82.1971 5.93359 82.8169 6.03385 83.382 6.23438C83.9471 6.4349 84.4348 6.75846 84.8449 7.20508C85.2551 7.65169 85.5741 8.24414 85.802 8.98242C86.0298 9.71159 86.1437 10.6139 86.1437 11.6895V21H81.5227V11.6895C81.5227 11.0788 81.4497 10.6185 81.3039 10.3086C81.1672 9.98958 80.9667 9.77539 80.7023 9.66602C80.438 9.54753 80.1236 9.48828 79.759 9.48828C79.3215 9.48828 78.9432 9.57943 78.6242 9.76172C78.3052 9.94401 78.0363 10.1992 77.8176 10.5273C77.6079 10.8464 77.453 11.2246 77.3527 11.6621C77.2525 12.0996 77.2023 12.5781 77.2023 13.0977ZM104.855 15.709C104.855 15.3991 104.81 15.1211 104.718 14.875C104.627 14.6198 104.459 14.3828 104.213 14.1641C103.966 13.9453 103.611 13.7266 103.146 13.5078C102.69 13.2799 102.089 13.043 101.341 12.7969C100.466 12.5052 99.6233 12.1771 98.8121 11.8125C98.0009 11.4388 97.2763 11.0059 96.6383 10.5137C96.0003 10.0124 95.4944 9.42904 95.1207 8.76367C94.747 8.08919 94.5602 7.30534 94.5602 6.41211C94.5602 5.55534 94.7516 4.78516 95.1344 4.10156C95.5172 3.40885 96.0504 2.82096 96.734 2.33789C97.4267 1.8457 98.2379 1.47201 99.1676 1.2168C100.097 0.952474 101.114 0.820312 102.216 0.820312C103.675 0.820312 104.96 1.07552 106.072 1.58594C107.193 2.08724 108.068 2.80273 108.697 3.73242C109.335 4.65299 109.654 5.74219 109.654 7H104.882C104.882 6.4987 104.778 6.05664 104.568 5.67383C104.367 5.29102 104.062 4.99023 103.652 4.77148C103.242 4.55273 102.727 4.44336 102.107 4.44336C101.505 4.44336 101 4.53451 100.589 4.7168C100.179 4.89909 99.8694 5.14518 99.6598 5.45508C99.4501 5.75586 99.3453 6.08854 99.3453 6.45312C99.3453 6.75391 99.4273 7.02734 99.5914 7.27344C99.7646 7.51042 100.006 7.73372 100.316 7.94336C100.635 8.15299 101.018 8.35352 101.464 8.54492C101.92 8.73633 102.431 8.92318 102.996 9.10547C104.053 9.44271 104.992 9.82096 105.812 10.2402C106.642 10.6504 107.339 11.1198 107.904 11.6484C108.478 12.168 108.911 12.7604 109.203 13.4258C109.504 14.0911 109.654 14.8431 109.654 15.6816C109.654 16.5749 109.481 17.3678 109.134 18.0605C108.788 18.7533 108.291 19.3411 107.644 19.8242C106.997 20.2982 106.222 20.6582 105.32 20.9043C104.418 21.1504 103.41 21.2734 102.298 21.2734C101.278 21.2734 100.27 21.1458 99.277 20.8906C98.2926 20.6263 97.3994 20.2253 96.5973 19.6875C95.7952 19.1406 95.1526 18.4434 94.6695 17.5957C94.1956 16.7389 93.9586 15.7227 93.9586 14.5469H98.7711C98.7711 15.1302 98.8486 15.6224 99.0035 16.0234C99.1585 16.4245 99.3863 16.748 99.6871 16.9941C99.9879 17.2311 100.357 17.4043 100.795 17.5137C101.232 17.6139 101.733 17.6641 102.298 17.6641C102.909 17.6641 103.401 17.5775 103.775 17.4043C104.149 17.222 104.422 16.985 104.595 16.6934C104.768 16.3926 104.855 16.0645 104.855 15.709ZM122.049 19.2637L125.877 6.20703H130.826L124.879 23.2012C124.751 23.5749 124.583 23.9759 124.373 24.4043C124.163 24.8418 123.876 25.2565 123.512 25.6484C123.147 26.0404 122.678 26.3594 122.104 26.6055C121.538 26.8516 120.837 26.9746 119.998 26.9746C119.551 26.9746 119.223 26.9518 119.014 26.9062C118.813 26.8698 118.503 26.8014 118.084 26.7012V23.4062C118.202 23.4062 118.303 23.4062 118.385 23.4062C118.476 23.4062 118.576 23.4062 118.686 23.4062C119.178 23.4062 119.57 23.3561 119.861 23.2559C120.162 23.1556 120.39 23.0098 120.545 22.8184C120.709 22.627 120.837 22.3945 120.928 22.1211L122.049 19.2637ZM121.078 6.20703L123.99 16.5566L124.496 21.4375H121.406L116.143 6.20703H121.078ZM142.155 9.36523V21H137.547V6.20703H141.868L142.155 9.36523ZM141.608 13.0977L140.528 13.125C140.528 11.9948 140.664 10.9876 140.938 10.1035C141.211 9.21029 141.599 8.45378 142.1 7.83398C142.601 7.21419 143.198 6.74479 143.891 6.42578C144.593 6.09766 145.372 5.93359 146.229 5.93359C146.913 5.93359 147.537 6.03385 148.102 6.23438C148.676 6.4349 149.168 6.75846 149.579 7.20508C149.998 7.65169 150.317 8.24414 150.536 8.98242C150.763 9.71159 150.877 10.6139 150.877 11.6895V21H146.243V11.6758C146.243 11.0833 146.161 10.6322 145.996 10.3223C145.832 10.0033 145.595 9.78451 145.286 9.66602C144.976 9.54753 144.597 9.48828 144.151 9.48828C143.677 9.48828 143.276 9.57943 142.948 9.76172C142.62 9.94401 142.355 10.1992 142.155 10.5273C141.963 10.8464 141.822 11.2246 141.731 11.6621C141.649 12.0996 141.608 12.5781 141.608 13.0977ZM165.282 17.7188C165.71 17.7188 166.075 17.6413 166.376 17.4863C166.686 17.3223 166.918 17.0944 167.073 16.8027C167.237 16.502 167.315 16.1419 167.305 15.7227H171.639C171.649 16.8346 171.375 17.8099 170.819 18.6484C170.272 19.4779 169.525 20.125 168.577 20.5898C167.638 21.0456 166.576 21.2734 165.391 21.2734C164.234 21.2734 163.222 21.0866 162.356 20.7129C161.49 20.3301 160.766 19.8014 160.182 19.127C159.608 18.4434 159.175 17.6458 158.884 16.7344C158.601 15.8229 158.46 14.834 158.46 13.7676V13.4531C158.46 12.3867 158.601 11.3978 158.884 10.4863C159.175 9.56576 159.608 8.76823 160.182 8.09375C160.766 7.41016 161.486 6.88151 162.343 6.50781C163.208 6.125 164.216 5.93359 165.364 5.93359C166.595 5.93359 167.679 6.16602 168.618 6.63086C169.566 7.0957 170.309 7.77018 170.846 8.6543C171.384 9.53841 171.649 10.6094 171.639 11.8672H167.305C167.315 11.4206 167.246 11.0195 167.1 10.6641C166.955 10.3086 166.727 10.026 166.417 9.81641C166.116 9.59766 165.729 9.48828 165.255 9.48828C164.781 9.48828 164.398 9.5931 164.106 9.80273C163.815 10.0124 163.591 10.304 163.436 10.6777C163.29 11.0423 163.19 11.4616 163.136 11.9355C163.09 12.4095 163.067 12.9154 163.067 13.4531V13.7676C163.067 14.3145 163.09 14.8294 163.136 15.3125C163.19 15.7865 163.295 16.2057 163.45 16.5703C163.605 16.9258 163.828 17.2083 164.12 17.418C164.412 17.6185 164.799 17.7188 165.282 17.7188Z" fill="#DEDEDE"/>
</svg>
